<svg width="180" height="35" viewBox="0 0 180 35" fill="none" xmlns="http://www.w3.org/2000/svg">
<g clip-path="url(#clip0)">
<path d="M4.24919 34.0673L8.32317 27.1147H23.3925L27.4665 34.0673C27.5979 34.2845 27.4227 34.5453 27.2037 34.5453H4.51203C4.24919 34.5453 4.11777 34.2845 4.24919 34.0673Z" fill="white"/>
<path d="M0.306491 27.1143H8.32304L15.5511 14.7735C15.6825 14.5563 15.9891 14.5563 16.0768 14.7735L23.3486 27.1143H31.3651C31.5842 27.1143 31.7594 26.8536 31.628 26.6363L16.0768 0.129747C15.9453 -0.0875199 15.6387 -0.0875199 15.5511 0.129747L-0.000152979 26.6363C-0.0877656 26.8536 0.0874596 27.1143 0.306491 27.1143Z" fill="white"/>
<path d="M58.2185 7.64793C58.1747 7.51757 58.0433 7.43066 57.8681 7.43066H55.1521C55.0207 7.43066 54.8893 7.51757 54.8016 7.64793L46.6975 26.5502C46.6537 26.6805 46.6537 26.8109 46.7413 26.8978C46.8289 26.9847 46.9165 27.0716 47.0479 27.0716H49.4573C49.5887 27.0716 49.7201 26.9847 49.8077 26.8543L52.0418 21.5965H60.9783L63.2124 26.8543C63.2563 26.9847 63.3877 27.0716 63.5629 27.0716H65.9722C66.1037 27.0716 66.1913 27.0281 66.2789 26.8978C66.3665 26.8109 66.3665 26.6805 66.3227 26.5502L58.2185 7.64793ZM59.8394 18.9024H53.1808L56.5101 10.9938L59.8394 18.9024Z" fill="white"/>
<path d="M83.1006 7.43066H74.5145C74.2955 7.43066 74.1641 7.60448 74.1641 7.77829V26.6805C74.1641 26.8978 74.3393 27.0281 74.5145 27.0281H76.661C76.8801 27.0281 77.0115 26.8543 77.0115 26.6805V20.3363H83.0568C85.1595 20.3363 86.8679 19.7714 88.1383 18.5982C89.3649 17.4249 90.022 15.8606 90.022 13.9052C90.022 11.9498 89.4087 10.342 88.1383 9.21225C86.9117 8.03901 85.2471 7.43066 83.1006 7.43066ZM87.1308 13.9052C87.1308 15.0785 86.7803 15.991 86.0794 16.6428C85.3785 17.2946 84.3271 17.6422 82.9253 17.6422H77.0115V10.2117H82.9253C84.3271 10.2117 85.3785 10.5593 86.0794 11.2111C86.7803 11.8629 87.1308 12.732 87.1308 13.9052Z" fill="white"/>
<path d="M111.312 24.2906H101.28V7.82175C101.28 7.60448 101.105 7.47412 100.93 7.47412H98.7832C98.5642 7.47412 98.4327 7.64793 98.4327 7.82175V26.724C98.4327 26.9412 98.608 27.0716 98.7832 27.0716H111.356C111.575 27.0716 111.706 26.8978 111.706 26.724V24.6817C111.706 24.4644 111.531 24.2906 111.312 24.2906Z" fill="white"/>
<path d="M134.66 7.47412H132.032C131.901 7.47412 131.813 7.51757 131.725 7.64793L125.593 16.4255L119.46 7.64793C119.372 7.56103 119.284 7.47412 119.153 7.47412H116.525C116.393 7.47412 116.262 7.56103 116.218 7.69139C116.174 7.82175 116.174 7.95211 116.262 8.08247L124.191 19.4238V26.8109C124.191 27.0281 124.366 27.1585 124.541 27.1585H126.688C126.907 27.1585 127.038 26.9847 127.038 26.8109V19.4238L134.967 8.08247C135.055 7.95211 135.055 7.82175 135.011 7.69139C134.923 7.51757 134.792 7.47412 134.66 7.47412Z" fill="white"/>
<path d="M144.254 12.7754H142.108C141.888 12.7754 141.757 12.9492 141.757 13.123V26.7239C141.757 26.8977 141.932 27.0716 142.108 27.0716H144.254C144.473 27.0716 144.604 26.8977 144.604 26.7239V13.123C144.604 12.9492 144.473 12.7754 144.254 12.7754Z" fill="white"/>
<path d="M144.254 7.43066H142.108C141.888 7.43066 141.757 7.60448 141.757 7.77829V9.8206C141.757 10.0379 141.932 10.1682 142.108 10.1682H144.254C144.473 10.1682 144.604 9.99441 144.604 9.8206V7.82174C144.604 7.60448 144.473 7.43066 144.254 7.43066Z" fill="white"/>
<path d="M170.319 13.1665C169.837 11.9498 169.136 10.9069 168.26 10.0813C167.384 9.21226 166.42 8.56046 165.325 8.12592C164.23 7.69139 163.091 7.47412 161.908 7.47412H153.891C153.672 7.47412 153.541 7.64793 153.541 7.82175V26.724C153.541 26.9412 153.716 27.0716 153.891 27.0716H161.908C163.091 27.0716 164.23 26.8543 165.325 26.4198C166.42 25.9853 167.384 25.3335 168.26 24.4644C169.136 23.5953 169.793 22.5959 170.319 21.3792C170.801 20.1625 171.064 18.8155 171.064 17.2511C171.064 15.7303 170.845 14.3398 170.319 13.1665ZM168.172 17.2511C168.172 18.5113 167.909 19.728 167.384 20.7709C166.858 21.8137 166.113 22.6828 165.193 23.3346C164.274 23.9864 163.135 24.2906 161.864 24.2906H156.432V10.2117H161.864C163.135 10.2117 164.274 10.5159 165.193 11.1677C166.113 11.8195 166.858 12.6451 167.384 13.7314C167.909 14.7743 168.172 15.991 168.172 17.2511Z" fill="white"/>
<path d="M176.846 7.43066H174.831C174.787 7.43066 174.787 7.47412 174.787 7.47412V7.77829C174.787 7.82174 174.831 7.82174 174.831 7.82174H175.619V9.8206C175.619 9.86406 175.663 9.86406 175.663 9.86406H176.014C176.057 9.86406 176.057 9.8206 176.057 9.8206V7.82174H176.846C176.89 7.82174 176.89 7.77829 176.89 7.77829V7.47412C176.89 7.43066 176.846 7.43066 176.846 7.43066Z" fill="white"/>
<path d="M179.956 7.43066H179.606H179.562L178.817 8.38664L178.073 7.43066H178.029H177.678C177.635 7.43066 177.635 7.47412 177.635 7.47412V9.8206C177.635 9.86406 177.678 9.86406 177.678 9.86406H178.029C178.073 9.86406 178.073 9.8206 178.073 9.8206V8.16937L178.817 9.03844H178.861H178.905L179.606 8.16937V9.8206C179.606 9.86406 179.65 9.86406 179.65 9.86406H180C180.044 9.86406 180.044 9.8206 180.044 9.8206V7.47412C180 7.43066 180 7.43066 179.956 7.43066Z" fill="white"/>
</g>
<defs>
<clipPath id="clip0">
<rect width="180" height="34.5454" fill="white"/>
</clipPath>
</defs>
</svg>
